<?xml version="1.0" encoding="UTF-8"?>
<svg onclick="saveSVG()" title="Click to download" xmlns="http://www.w3.org/2000/svg" viewBox="0 0 251 289">
                <rect class="bg-rect" width="251" height="289" rx="14.6" ry="14.6" fill="#fffde7"/>
                <path class="left-seg" fill="#8b4513" d="M143.96,97.74s-6.78,10.44-8.76,18.07c0,0-6.77,11.57-11.57,17.79,0,0-49.42,32.18-58.45,45.17,0,0-17.79,5.65-22.31,8.75-4.51,3.11-7.34,8.19-9.31,9.04-1.98.85-33.56,20.33-33.56,20.33V14.72C0,6.59,6.59,0,14.72,0h117.38l2.17,17.9c-6.84,4.12-11.81,10.93-11.81,16.87,0,6.77,6.47,10.03,14.8,7.77l6.7,55.2Z"/>
                <path class="right-seg" fill="#d2691e" d="M251,14.38v260.24c0,7.94-6.44,14.38-14.38,14.38H26.21s30.5-27.22,34.17-30.6c3.67-3.39,5.36-.29,7.62,1.69,2.26,1.98,23.16,4.52,27.11,5.08,3.95.57,18.35,3.39,22.87,6.5,4.52,3.1,24.56,1.97,27.95,1.69,3.39-.28,7.91-9.32,9.06-12.14,1.15-2.82-3.31-5.11-2-5.65,1.61-.66,8.54,2.49,14.4-5.65,6.07-8.42,2.26-9.88.57-11.29-1.7-1.41-3.78-3.12,1.97-3.67,6.69-.64,8.75-9.6,9.8-14.12,1.04-4.52-4.43-7.06-6.41-9.6-1.98-2.54,3.39-.56,5.93-8.47,2.54-7.9-3.21-15.99-9.88-19.2-4.89-2.36-32.76-12.7-36.71-13.55-3.95-.85-2.26-3.95-1.69-6.5.56-2.54,10.16-13.83,15.02-21.45,4.85-7.63,10.39-17.51,9.93-28.8-.45-11.3-6.88-15.25-6.88-15.25l-7.56-57.03c8.16-3.81,14.44-11.59,14.44-18.27,0-7.29-7.49-10.5-16.73-7.17-.35.12-.69.26-1.03.4l-2.11-15.95h100.57c7.94,0,14.38,6.44,14.38,14.38Z"/>
              </svg>